<svg width="360" height="160" viewBox="0 0 360 160" xmlns="http://www.w3.org/2000/svg" role="img" aria-labelledby="title">
  <title id="title">The Institute for Functional Medicine</title>
  <rect width="360" height="160" fill="none" />
  <g transform="translate(60 80)">
    <circle r="52" fill="none" stroke="#2b8ca5" stroke-width="1" opacity="0.2" />
    <g fill="#1c6a8c">
      <circle cx="44" cy="-8" r="6" />
      <circle cx="28" cy="-36" r="6" />
      <circle cx="-6" cy="-46" r="6" />
      <circle cx="-36" cy="-22" r="6" />
      <circle cx="-44" cy="14" r="6" />
      <circle cx="-20" cy="42" r="6" />
      <circle cx="16" cy="46" r="6" />
      <circle cx="42" cy="24" r="6" />
    </g>
    <g fill="#3db6b2">
      <circle cx="34" cy="-20" r="5" />
      <circle cx="6" cy="-38" r="5" />
      <circle cx="-26" cy="-34" r="5" />
      <circle cx="-46" cy="0" r="5" />
      <circle cx="-26" cy="32" r="5" />
      <circle cx="10" cy="36" r="5" />
      <circle cx="36" cy="6" r="5" />
    </g>
  </g>
  <text x="130" y="68" font-family="'Playfair Display', Georgia, serif" font-weight="600" font-size="22" fill="#1c3c7c">THE INSTITUTE FOR</text>
  <text x="130" y="110" font-family="'Playfair Display', Georgia, serif" font-weight="600" font-size="32" fill="#2b4e96">FUNCTIONAL</text>
  <text x="130" y="142" font-family="'Playfair Display', Georgia, serif" font-weight="600" font-size="32" fill="#2b4e96">MEDICINE</text>
  <text x="295" y="146" font-family="'Inter', 'Helvetica Neue', Arial, sans-serif" font-size="18" fill="#2b4e96">®</text>
</svg>
